<svg width="15" height="16" viewBox="0 0 15 16" fill="none" xmlns="http://www.w3.org/2000/svg">
<path d="M4.96217 13.9662C4.78642 13.7904 4.68769 13.552 4.68769 13.3034C4.68769 13.0548 4.78642 12.8164 4.96217 12.6406L9.6028 7.99999L4.96217 3.35936C4.7914 3.18255 4.6969 2.94573 4.69904 2.69992C4.70118 2.45411 4.79977 2.21897 4.97359 2.04515C5.14741 1.87133 5.38255 1.77274 5.62836 1.7706C5.87417 1.76847 6.11098 1.86296 6.2878 2.03374L11.5912 7.33717C11.767 7.51298 11.8657 7.75139 11.8657 7.99999C11.8657 8.24858 11.767 8.48699 11.5912 8.6628L6.2878 13.9662C6.11199 14.142 5.87358 14.2407 5.62498 14.2407C5.37639 14.2407 5.13798 14.142 4.96217 13.9662Z" fill="#2F4DDB"/>
</svg>
