<svg width="26" height="27" viewBox="0 0 26 27" fill="none" xmlns="http://www.w3.org/2000/svg">
<path d="M16.7918 15.6668H15.9359L15.6326 15.3743C16.3096 14.5877 16.8044 13.6613 17.0816 12.6612C17.3588 11.6611 17.4115 10.6121 17.2359 9.58926C16.7268 6.57759 14.2134 4.17259 11.1801 3.80426C10.1137 3.66935 9.03053 3.78018 8.01354 4.12827C6.99655 4.47637 6.07266 5.0525 5.31258 5.81258C4.5525 6.57266 3.97637 7.49654 3.62827 8.51354C3.28018 9.53053 3.16935 10.6137 3.30426 11.6801C3.67259 14.7134 6.0776 17.2268 9.08926 17.7359C10.1121 17.9115 11.1611 17.8588 12.1612 17.5816C13.1613 17.3044 14.0877 16.8096 14.8743 16.1326L15.1668 16.4359V17.2918L19.7709 21.8959C20.2151 22.3401 20.9409 22.3401 21.3851 21.8959C21.8293 21.4518 21.8293 20.7259 21.3851 20.2818L16.7918 15.6668ZM10.2918 15.6668C7.59426 15.6668 5.41676 13.4893 5.41676 10.7918C5.41676 8.09426 7.59426 5.91676 10.2918 5.91676C12.9893 5.91676 15.1668 8.09426 15.1668 10.7918C15.1668 13.4893 12.9893 15.6668 10.2918 15.6668Z" fill="#1E1E1E"/>
</svg>
