<svg width="60" height="61" viewBox="0 0 60 61" fill="none" xmlns="http://www.w3.org/2000/svg">
<path d="M41.5004 15.05C39.7914 13.0991 38.8497 10.5936 38.8504 8H31.1254V39C31.0658 40.6776 30.3576 42.2665 29.1498 43.4323C27.942 44.5981 26.329 45.2498 24.6504 45.25C21.1004 45.25 18.1504 42.35 18.1504 38.75C18.1504 34.45 22.3004 31.225 26.5754 32.55V24.65C17.9504 23.5 10.4004 30.2 10.4004 38.75C10.4004 47.075 17.3004 53 24.6254 53C32.4754 53 38.8504 46.625 38.8504 38.75V23.025C41.9829 25.2746 45.7438 26.4816 49.6004 26.475V18.75C49.6004 18.75 44.9004 18.975 41.5004 15.05Z" fill="#F1F9FC"/>
</svg>
