<svg width="60" height="61" viewBox="0 0 60 61" fill="none" xmlns="http://www.w3.org/2000/svg">
<path d="M25 38L37.975 30.5L25 23V38ZM53.9 18.425C54.225 19.6 54.45 21.175 54.6 23.175C54.775 25.175 54.85 26.9 54.85 28.4L55 30.5C55 35.975 54.6 40 53.9 42.575C53.275 44.825 51.825 46.275 49.575 46.9C48.4 47.225 46.25 47.45 42.95 47.6C39.7 47.775 36.725 47.85 33.975 47.85L30 48C19.525 48 13 47.6 10.425 46.9C8.175 46.275 6.725 44.825 6.1 42.575C5.775 41.4 5.55 39.825 5.4 37.825C5.225 35.825 5.15 34.1 5.15 32.6L5 30.5C5 25.025 5.4 21 6.1 18.425C6.725 16.175 8.175 14.725 10.425 14.1C11.6 13.775 13.75 13.55 17.05 13.4C20.3 13.225 23.275 13.15 26.025 13.15L30 13C40.475 13 47 13.4 49.575 14.1C51.825 14.725 53.275 16.175 53.9 18.425Z" fill="#F1F9FC"/>
</svg>
